HIERARCHY
ROOT Hips
{
	OFFSET 0.00000 0.00000 0.00000
	CHANNELS 6 Xposition Yposition Zposition Zrotation Yrotation Xrotation 
	JOINT RightUpLegDummy
	{
		OFFSET 0 0 0
		CHANNELS 3 Zrotation Yrotation Xrotation
		JOINT RightUpLeg
		{
			OFFSET -3.52197 -3.41223 0.04002
			CHANNELS 3 Zrotation Yrotation Xrotation
			JOINT RightLeg
			{
				OFFSET 0.00006 -17.42390 1.60435
				CHANNELS 3 Zrotation Yrotation Xrotation
				JOINT RightFoot
				{
					OFFSET 0.06153 -16.50078 -1.63901
					CHANNELS 3 Zrotation Yrotation Xrotation
					JOINT RightToes
					{
						OFFSET 0.00298 -1.73825 3.34613
						CHANNELS 3 Zrotation Yrotation Xrotation
						End Site
						{
							OFFSET 0.00480 -0.05416 3.85043
						}
					}
				}
			}
		}
	}
	JOINT SpineDummy
	{
		OFFSET 0 0 0
		CHANNELS 3 Zrotation Yrotation Xrotation
		JOINT Spine
		{
			OFFSET 0.00000 4.68130 0.00000
			CHANNELS 3 Zrotation Yrotation Xrotation
			JOINT Spine1
			{
				OFFSET -0.00000 10.10138 0.05002
				CHANNELS 3 Zrotation Yrotation Xrotation
				JOINT HEadDummy
				{
					OFFSET 0 0 0
					CHANNELS 3 Zrotation Yrotation Xrotation
					JOINT Head
					{
						OFFSET -0.00000 3.43865 0.00438
						CHANNELS 3 Zrotation Yrotation Xrotation
						End Site
						{
							OFFSET -0.11417 5.02924 0.98962
						}
					}
				}
				JOINT LeftShoulder1Dummy
				{
					OFFSET 0 0 0
					CHANNELS 3 Zrotation Yrotation Xrotation
					JOINT LeftShoulder1
					{
						OFFSET 3.53937 -0.14262 -0.08662
						CHANNELS 3 Zrotation Yrotation Xrotation
						JOINT LeftArm
						{
							OFFSET 4.04833 -0.00133 0.12681
							CHANNELS 3 Zrotation Yrotation Xrotation
							JOINT LeftForeArm
							{
								OFFSET 10.33880 -0.01036 -0.55515
								CHANNELS 3 Zrotation Yrotation Xrotation
								JOINT LeftHand
								{
									OFFSET 8.69677 0.07543 0.40060
									CHANNELS 3 Zrotation Yrotation Xrotation
									End Site
									{
										OFFSET 5.28377 -0.21905 0.59205
									}
								}
							}
						}
					}
				}
				JOINT RightShoulderDummy
				{
					OFFSET 0 0 0
					CHANNELS 3 Zrotation Yrotation Xrotation
					JOINT RightShoulder
					{
						OFFSET -3.53937 -0.14262 -0.08660
						CHANNELS 3 Zrotation Yrotation Xrotation
						JOINT RightArm
						{
							OFFSET -4.04833 -0.00133 0.12683
							CHANNELS 3 Zrotation Yrotation Xrotation
							JOINT RightForeArm
							{
								OFFSET -10.37987 -0.01039 -0.55511
								CHANNELS 3 Zrotation Yrotation Xrotation
								JOINT RightHand
								{
									OFFSET -8.67398 0.07538 0.40058
									CHANNELS 3 Zrotation Yrotation Xrotation
									End Site
									{
										OFFSET -5.24810 -0.21916 0.59204
									}
								}
							}
						}
					}
				}
			}
		}
	}
	JOINT LeftUpLegDummy
	{
		OFFSET 0 0 0
		CHANNELS 3 Zrotation Yrotation Xrotation
		JOINT LeftUpLeg
		{
			OFFSET 3.52197 -3.41223 0.04002
			CHANNELS 3 Zrotation Yrotation Xrotation
			JOINT LeftLeg
			{
				OFFSET -0.00012 -17.42399 1.60337
				CHANNELS 3 Zrotation Yrotation Xrotation
				JOINT LeftFoot
				{
					OFFSET -0.09972 -16.50070 -1.63802
					CHANNELS 3 Zrotation Yrotation Xrotation
					JOINT LeftToes
					{
						OFFSET -0.01575 -1.73823 3.34611
						CHANNELS 3 Zrotation Yrotation Xrotation
						End Site
						{
							OFFSET 0.03150 -0.01868 3.85031
						}
					}
				}
			}
		}
	}
}
MOTION
Frames: 11
Frame Time: 0.033333
36.1319 38.0309 2.8408 56.9936 -89.8997 -63.2202 0.0000 0.0000 0.0000 2.8364 -1.0877 -18.3341 -3.3671 -25.8184 10.6305 3.9491 -0.1588 -7.3939 0.0000 0.0000 0.0000 0.0000 0.0000 0.0000 -3.9083 -2.8016 13.8056 5.1952 -4.3197 1.0956 -0.0000 0.0000 -0.0000 -1.1199 2.3166 -14.9345 -0.0000 0.0000 -0.0000 -44.3276 -3.2065 3.4149 -28.4472 -10.0984 26.9352 -0.8706 -22.1876 12.8682 5.3778 0.0211 -0.2470 -0.0000 0.0000 -0.0000 38.6489 0.0237 1.5848 42.0392 -8.8085 2.7328 11.1140 1.0304 35.9875 -12.1627 -2.2027 -0.3482 0.0000 0.0000 0.0000 -5.3255 5.1471 24.6131 3.4359 14.9294 9.7378 -5.0947 -0.4274 -24.1476 0.0000 0.0000 0.0000
34.4942 37.9206 2.7639 -59.9011 -88.8649 53.7168 0.0000 0.0000 0.0000 5.4367 -4.9836 -19.0330 -5.7825 -23.0306 16.2347 1.1062 -0.0818 -4.9040 0.0000 0.0000 0.0000 0.0000 0.0000 0.0000 -1.4911 -2.8941 12.7086 4.5121 -4.0156 0.8696 -0.0000 0.0000 -0.0000 -1.8107 1.9099 -13.9779 -0.0000 0.0000 -0.0000 -44.4933 -3.2283 3.4382 -29.0506 -8.8241 26.9219 -1.3121 -21.6763 13.3255 5.3778 0.0211 -0.2470 -0.0000 0.0000 -0.0000 38.5090 0.0257 1.5777 40.7385 -7.5261 1.6600 10.9391 0.3165 35.6731 -11.9998 -2.0499 -0.3585 0.0000 0.0000 0.0000 -3.3977 6.1558 25.4493 4.5518 13.1094 13.3483 -7.9765 -0.6577 -22.7516 0.0000 0.0000 0.0000
32.8248 37.8812 2.6989 -110.8560 -87.7583 104.5720 0.0000 0.0000 0.0000 8.4302 -8.6928 -19.0782 -7.0927 -17.2928 20.3295 -0.8923 0.0388 -3.9917 0.0000 0.0000 0.0000 0.0000 0.0000 0.0000 1.4435 -2.6121 11.5411 3.3073 -3.2601 0.8217 -0.0000 0.0000 -0.0000 -2.5182 1.7180 -12.9696 -0.0000 0.0000 -0.0000 -44.4801 -3.2545 3.4506 -30.1022 -6.6860 26.3281 -2.0655 -20.9565 12.8226 5.3778 0.0211 -0.2470 -0.0000 0.0000 -0.0000 38.3205 0.0369 1.5759 39.2386 -4.9660 0.7681 10.8575 -0.9688 35.7039 -12.1155 -2.1552 -0.3514 0.0000 0.0000 0.0000 -1.3898 7.1675 25.1402 5.6087 11.4512 19.1745 -11.7286 -0.6984 -19.3661 0.0000 0.0000 0.0000
31.2298 37.9106 2.6055 -126.9420 -86.3586 120.6110 0.0000 0.0000 0.0000 10.0852 -9.1985 -17.9470 -7.6001 -14.3521 22.8918 -2.6969 0.1048 -5.8556 0.0000 0.0000 0.0000 0.0000 0.0000 0.0000 3.8659 -2.0929 10.9017 2.3040 -2.3779 0.2736 -0.0000 0.0000 -0.0000 -3.0375 1.6690 -11.7553 -0.0000 0.0000 -0.0000 -44.6740 -3.2801 3.4781 -30.9692 -3.8855 24.7448 -3.2423 -19.9081 11.9511 5.3778 0.0211 -0.2470 -0.0000 0.0000 -0.0000 37.8109 0.0642 1.5691 38.1460 -1.5552 0.2576 10.8469 -2.0360 35.6233 -12.8310 -2.4959 -0.3360 0.0000 0.0000 0.0000 0.0168 7.3877 22.2997 7.2313 10.2047 28.5725 -13.0997 -0.0187 -11.9302 0.0000 0.0000 0.0000
29.8217 37.9534 2.4625 -130.0540 -85.4282 123.7340 0.0000 0.0000 0.0000 10.6811 -8.4083 -16.3382 -8.1088 -14.3273 24.7881 -3.6014 0.0452 -8.9509 0.0000 0.0000 0.0000 0.0000 0.0000 0.0000 5.4322 -1.5734 11.1838 1.6466 -1.6138 -0.8890 -0.0000 0.0000 -0.0000 -3.0714 1.3824 -10.7069 -0.0000 0.0000 -0.0000 -45.1851 -3.2874 3.5201 -31.2849 -1.0566 22.2690 -4.6046 -18.6399 12.2648 5.3778 0.0211 -0.2470 -0.0000 0.0000 -0.0000 37.1281 0.0780 1.5498 37.6034 2.1034 0.4355 10.9370 -1.7055 34.4559 -13.6280 -2.5353 -0.3516 0.0000 0.0000 0.0000 0.7373 6.3284 16.8048 8.9848 8.3999 40.4026 -11.1268 0.9763 -1.2893 0.0000 0.0000 0.0000
28.5894 37.9758 2.3009 -129.5080 -85.0633 122.9890 0.0000 0.0000 0.0000 10.6028 -7.4259 -14.7143 -8.6958 -15.2512 26.6676 -2.7851 -0.0465 -11.5660 0.0000 0.0000 0.0000 0.0000 0.0000 0.0000 6.4394 -1.1384 12.0006 0.8592 -0.9528 -1.6966 -0.0000 0.0000 -0.0000 -2.5101 0.6745 -10.4012 -0.0000 0.0000 -0.0000 -45.5812 -3.2552 3.5332 -31.3628 1.2283 19.6744 -5.8358 -17.3537 14.2812 5.3778 0.0211 -0.2470 -0.0000 0.0000 -0.0000 36.7022 0.0701 1.5306 37.1344 6.0088 1.0844 11.0346 0.2714 32.0243 -13.8684 -2.0360 -0.4132 0.0000 0.0000 0.0000 0.9824 4.3278 10.3227 9.8287 6.0659 51.6407 -8.9239 1.3777 6.5488 0.0000 0.0000 0.0000
27.3331 38.1101 2.1741 -133.0090 -85.0024 126.0150 0.0000 0.0000 0.0000 9.8074 -5.9345 -12.1166 -8.7494 -16.3158 27.2832 -1.1983 -0.0724 -13.4651 0.0000 0.0000 0.0000 0.0000 0.0000 0.0000 7.0811 -0.7501 12.4091 -0.2907 -0.3108 -1.3264 -0.0000 0.0000 -0.0000 -1.7116 -0.1774 -10.7824 -0.0000 0.0000 -0.0000 -45.5888 -3.1932 3.5014 -31.5357 3.0354 17.7164 -6.9242 -16.1121 17.1858 5.3778 0.0211 -0.2470 -0.0000 0.0000 -0.0000 36.5479 0.0752 1.5270 36.5181 10.3801 1.5561 10.9354 3.1593 29.1702 -13.6270 -1.4630 -0.4700 0.0000 0.0000 0.0000 0.6891 2.3090 4.3751 10.7929 4.6169 60.0947 -7.8466 1.2644 7.5484 0.0000 0.0000 0.0000
26.0062 38.3467 2.0736 -143.2880 -85.0698 135.8590 0.0000 0.0000 0.0000 8.5273 -4.1825 -8.7078 -8.2499 -17.5348 26.4094 -0.2152 -0.0646 -15.2474 0.0000 0.0000 0.0000 0.0000 0.0000 0.0000 7.1811 -0.3585 12.3151 -1.4684 0.3242 -0.4547 -0.0000 0.0000 -0.0000 -1.2153 -0.8551 -11.1736 -0.0000 0.0000 -0.0000 -45.4165 -3.1320 3.4567 -31.7056 4.8275 16.5464 -7.9513 -14.9015 20.2215 5.3778 0.0211 -0.2470 -0.0000 0.0000 -0.0000 36.2414 0.1046 1.5282 36.1983 14.9079 2.2995 10.4853 6.4834 25.9094 -13.5162 -1.2431 -0.4904 0.0000 0.0000 0.0000 -0.1832 0.5311 -0.9813 13.0235 4.4039 64.9096 -6.6020 0.8659 3.9402 0.0000 0.0000 0.0000
24.6986 38.5537 1.9650 -157.3250 -85.0272 149.6970 0.0000 0.0000 0.0000 7.0995 -2.7426 -5.5519 -7.6210 -18.6144 25.3044 0.1938 -0.0535 -16.9539 0.0000 0.0000 0.0000 0.0000 0.0000 0.0000 6.7919 0.0597 12.2599 -2.4440 0.9415 -0.0232 -0.0000 0.0000 -0.0000 -1.1862 -1.3562 -11.1660 -0.0000 0.0000 -0.0000 -45.2359 -3.0833 3.4182 -31.7621 6.7269 15.7004 -8.8752 -13.7316 23.3492 5.3778 0.0211 -0.2470 -0.0000 0.0000 -0.0000 35.6040 0.1319 1.5160 36.5279 19.0147 5.4158 9.2998 10.4941 20.5612 -13.7151 -1.1821 -0.5043 0.0000 0.0000 0.0000 -1.2053 -1.2285 -6.0348 15.6241 5.0092 66.1518 -4.9021 0.4840 -0.0704 0.0000 0.0000 0.0000
23.3905 38.7358 1.8514 -170.9660 -84.6253 163.1760 0.0000 0.0000 0.0000 5.7325 -2.2785 -2.4383 -6.7138 -18.5289 23.8631 0.5706 -0.0334 -18.2151 0.0000 0.0000 0.0000 0.0000 0.0000 0.0000 6.2575 0.5011 12.3053 -3.3283 1.5775 0.2117 -0.0000 0.0000 -0.0000 -1.3523 -1.7374 -10.9995 -0.0000 0.0000 -0.0000 -44.9484 -3.0495 3.3799 -31.8454 8.4132 14.4272 -9.7142 -12.4810 26.6155 5.3778 0.0211 -0.2470 -0.0000 0.0000 -0.0000 34.8836 0.1433 1.4939 37.1791 22.6366 10.9729 6.9750 14.9063 13.2778 -13.7558 -0.9578 -0.5306 0.0000 0.0000 0.0000 -1.9296 -2.8666 -10.3946 17.1732 6.2529 64.1529 -3.5721 0.2776 -2.9497 0.0000 0.0000 0.0000
22.0661 38.9292 1.7492 178.2600 -83.8605 173.6670 0.0000 0.0000 0.0000 4.4168 -2.7606 1.2006 -5.4247 -17.2147 21.3974 0.9840 -0.0037 -19.1450 0.0000 0.0000 0.0000 0.0000 0.0000 0.0000 5.7538 0.8971 12.2369 -4.1953 2.1921 0.8011 -0.0000 0.0000 -0.0000 -1.4591 -1.8702 -11.0451 -0.0000 0.0000 -0.0000 -44.6519 -3.0345 3.3508 -31.8830 9.6055 12.4667 -10.5929 -10.9214 29.5735 5.3778 0.0211 -0.2470 -0.0000 0.0000 -0.0000 34.3398 0.1594 1.4801 37.6488 26.1383 16.3197 3.9371 18.7870 6.7907 -13.4788 -0.6391 -0.5549 0.0000 0.0000 0.0000 -2.2983 -4.1361 -13.5388 17.5460 8.3608 58.9211 -3.5386 0.2170 -5.2894 0.0000 0.0000 0.0000
